<?xml version="1.0" encoding="UTF-8" standalone="no"?>
<svg
   xmlns:dc="http://purl.org/dc/elements/1.1/"
   xmlns:cc="http://creativecommons.org/ns#"
   xmlns:rdf="http://www.w3.org/1999/02/22-rdf-syntax-ns#"
   xmlns:svg="http://www.w3.org/2000/svg"
   xmlns="http://www.w3.org/2000/svg"
   xmlns:sodipodi="http://sodipodi.sourceforge.net/DTD/sodipodi-0.dtd"
   xmlns:inkscape="http://www.inkscape.org/namespaces/inkscape"
   inkscape:version="1.0beta2 (2b71d25, 2019-12-03)"
   height="168.42999"
   width="160.84"
   sodipodi:docname="synmodel2.svg"
   xml:space="preserve"
   viewBox="0 0 160.83999 168.42999"
   y="0px"
   x="0px"
   id="Layer_1"
   version="1.1"><metadata
   id="metadata1264"><rdf:RDF><cc:Work
       rdf:about=""><dc:format>image/svg+xml</dc:format><dc:type
         rdf:resource="http://purl.org/dc/dcmitype/StillImage" /><dc:title></dc:title></cc:Work></rdf:RDF></metadata><defs
   id="defs1262" /><sodipodi:namedview
   inkscape:current-layer="Layer_1"
   inkscape:window-maximized="0"
   inkscape:window-y="141"
   inkscape:window-x="699"
   inkscape:cy="56.880274"
   inkscape:cx="-69.740026"
   inkscape:zoom="2.4326791"
   fit-margin-bottom="0"
   fit-margin-right="0"
   fit-margin-left="0"
   fit-margin-top="0"
   showgrid="false"
   id="namedview1260"
   inkscape:window-height="1097"
   inkscape:window-width="2106"
   inkscape:pageshadow="2"
   inkscape:pageopacity="0"
   guidetolerance="10"
   gridtolerance="10"
   objecttolerance="10"
   borderopacity="1"
   inkscape:document-rotation="0"
   bordercolor="#666666"
   pagecolor="#ffffff" />
<style
   id="style833"
   type="text/css">
	.st0{fill:#C9E2AD;stroke:#000000;stroke-miterlimit:10;}
	.st1{fill:#A6BAB6;stroke:#000000;stroke-miterlimit:10;}
	.st2{fill:#E9EED3;stroke:#000000;stroke-width:0.75;stroke-miterlimit:10;}
	.st3{fill:#DCC38D;stroke:#000000;stroke-miterlimit:10;}
	.st4{fill:none;stroke:#000000;stroke-width:0.6105;stroke-linecap:round;stroke-miterlimit:10;}
	.st5{font-family:'MyriadPro-Regular';}
	.st6{font-size:6px;}
	.st7{font-family:'Helvetica-Bold';}
	.st8{font-size:5.591px;}
	.st9{fill:none;stroke:#F15A29;stroke-miterlimit:10;}
	.st10{fill:#F15A29;}
</style>
<g
   transform="translate(0.5,0.42)"
   id="g1257">
	<rect
   x="0"
   id="rect835"
   height="86.169998"
   width="78.529999"
   class="st0"
   y="81.339996" />
	<rect
   id="rect837"
   height="86.169998"
   width="78.529999"
   class="st1"
   y="81.339996"
   x="81.309998" />
	<rect
   y="0"
   x="0"
   id="rect839"
   height="78.349998"
   width="78.349998"
   class="st2" />
	<rect
   id="rect841"
   height="78.349998"
   width="78.349998"
   class="st3"
   y="0.079999998"
   x="81.489998" />
	<path
   inkscape:connector-curvature="0"
   id="path843"
   d="m 49,22.32 c -4.11,-0.45 -8.31,-0.5 -12.27,0.76 -4.47,1.42 -8,4.51 -10.5,8.42 -2.44,3.8 -3.94,8.15 -5.19,12.47 -0.34,1.16 -0.66,2.71 -0.96,3.88 -0.37,1.42 -0.18,3.57 0.16,4.44 0.99,2.59 1.5,4.86 3.22,6.9 1.71,2.02 3.58,3.88 5.88,5.22 2.19,1.27 4.62,2.1 7.09,2.61 2.47,0.5 4.99,0.71 7.51,0.75 2.58,0.04 5.17,-0.11 7.71,-0.59 2.49,-0.47 4.95,-1.29 7.12,-2.61 2.07,-1.26 3.81,-2.96 5.19,-4.93 2.81,-4 4.05,-8.99 4.26,-13.83 0.22,-5.18 -0.82,-10.58 -3.65,-14.99 -2.56,-3.99 -6.7,-7.14 -11.39,-8.09 m -0.21,1.78 c 3.02,0.99 5.67,1.74 7.83,4.09 3.19,3.49 4.74,8.24 5.06,12.9 0.31,4.56 -0.34,9.36 -2.35,13.5 -0.95,1.97 -2.21,3.77 -3.81,5.26 -1.66,1.54 -3.69,2.64 -5.83,3.36 C 49.4,65.11 44.45,65.19 39.8,64.74 35.13,64.29 30.4,62.9 26.91,59.63 25.96,58.75 25.1,57.77 24.27,56.78 23.5,55.86 22.71,54.93 22.08,53.91 21.45,52.89 21.56,51.8 21.42,50.68 c -0.17,-1.36 -0.06,-2.79 0.29,-4.1 1.11,-4.12 2.32,-8.26 4.26,-12.08 1.82,-3.59 4.34,-6.88 7.91,-8.88 4.31,-2.41 9.44,-2.49 14.23,-2.01" />
	<path
   inkscape:connector-curvature="0"
   id="path845"
   d="m 138.56,35.27 c -0.41,-2.89 -1.49,-5.66 -2.52,-8.44 l -3.23,-8.69 c -0.52,-1.39 -0.62,-2.97 -1.7,-4.13 -1.11,-1.19 -1.19,-1.11 -2.67,-1.71 -1.08,-0.44 -1.81,-0.54 -2.75,-0.65 -2.1,-0.37 -4.36,-0.04 -6.16,0.97 -2.53,1.42 -3.37,3.69 -3.34,6.07 0.03,2.21 0.79,4.69 -0.4,6.78 -0.95,1.67 -2.83,2.86 -4.62,3.95 -2.06,1.26 -4.18,2.48 -5.7,4.19 -1.76,1.98 -2.27,4.48 -1.94,6.85 0.35,2.56 1.46,4.96 2.77,7.29 1.34,2.38 2.81,4.75 3.5,7.32 0.33,1.23 0.45,2.51 0.24,3.77 -0.22,1.27 -0.74,2.51 -1.23,3.72 -0.94,2.31 -1.75,4.63 -1.06,7.06 0.57,1.99 2.2,3.87 4.78,4.4 3.23,0.66 6.31,-0.95 8.5,-2.7 4.45,-3.54 7.64,-8.05 10.12,-12.61 1.28,-2.35 2.4,-4.76 3.43,-7.19 1.09,-2.56 2.18,-5.13 2.99,-7.75 0.89,-2.77 1.39,-5.64 0.99,-8.5 M 130.57,17.5 c 0.67,2.01 2.57,8.21 2.57,8.21 0.96,2.59 2.04,5.18 2.69,7.84 0.64,2.58 0.62,5.19 0.01,7.77 -0.61,2.58 -1.63,5.08 -2.64,7.57 -0.92,2.26 -1.89,4.51 -2.98,6.72 -2.11,4.29 -4.72,8.51 -8.35,12.12 -1.69,1.68 -3.71,3.67 -6.37,4.35 -2.23,0.57 -4.13,-0.28 -5.02,-1.9 -1.03,-1.87 -0.6,-3.87 0.1,-5.75 0.9,-2.42 2.07,-4.76 1.95,-7.33 -0.24,-5 -4.08,-9.15 -5.83,-13.81 -0.78,-2.09 -1.24,-4.36 -0.5,-6.5 0.65,-1.88 2.28,-3.25 4.12,-4.46 1.79,-1.17 3.75,-2.18 5.36,-3.51 1.82,-1.49 2.9,-3.26 3.09,-5.34 0.21,-2.2 -0.6,-4.47 -0.02,-6.64 0.48,-1.8 2.13,-3.07 4.4,-3.4 0.93,-0.14 1.98,-0.05 2.92,0.13 0.7,0.13 0.99,0.1 2.51,0.91 1.38,0.72 1.99,3.02 1.99,3.02" />
	<path
   inkscape:connector-curvature="0"
   id="path847"
   d="m 66.65,113.96 c -1.65,-1.88 -4.26,-2.61 -6.58,-3.26 -5.86,-1.64 -11.91,-2.63 -17.99,-2.99 -6.08,-0.36 -12.19,-0.05 -18.21,0.89 -1.46,0.23 -2.92,0.5 -4.36,0.8 -0.06,0.01 -0.11,0.03 -0.16,0.05 -2.39,0.25 -4.42,1.82 -5.66,3.85 -1.51,2.46 -1.78,5.47 -1.91,8.29 -0.29,6.34 -0.05,12.7 0.71,19 0.31,2.61 0.49,5.48 1.73,7.85 0.57,1.09 1.46,2.05 2.57,2.6 1.26,0.62 2.66,0.79 4.04,0.85 3.19,0.13 6.39,0.14 9.59,0.18 3.22,0.04 6.44,0.06 9.65,0.06 3.25,0 6.5,-0.02 9.75,-0.06 1.61,-0.02 3.22,-0.05 4.83,-0.08 1.5,-0.03 3.02,-0.02 4.51,-0.23 2.51,-0.36 4.55,-1.76 5.79,-3.97 1.15,-2.06 1.58,-4.42 1.86,-6.73 0.76,-6.25 1.11,-12.58 1.35,-18.87 0.09,-2.8 0.49,-5.95 -1.51,-8.23 m -0.4,8.05 c -0.06,1.57 -0.13,3.14 -0.21,4.7 -0.16,3.01 -0.37,6.01 -0.63,9.02 -0.22,2.55 -0.36,5.15 -0.9,7.66 -0.42,1.94 -1.13,3.95 -2.68,5.28 -1.95,1.67 -4.89,1.39 -7.29,1.44 -3.03,0.06 -6.06,0.09 -9.09,0.12 -6.18,0.04 -12.37,0.02 -18.55,-0.09 -1.51,-0.02 -3.03,-0.05 -4.54,-0.09 -1.26,-0.03 -2.55,0 -3.78,-0.33 -2.31,-0.62 -3.16,-2.73 -3.59,-4.88 -0.56,-2.79 -0.82,-5.67 -1.05,-8.5 -0.25,-3.02 -0.38,-6.06 -0.39,-9.09 -0.01,-2.84 -0.04,-5.76 0.35,-8.58 0.32,-2.36 1.14,-4.81 3.11,-6.31 0.79,-0.6 1.72,-0.99 2.72,-1.04 0.17,-0.01 0.31,-0.05 0.43,-0.12 11.2,-2.33 22.87,-2.32 34.07,0.02 2.67,0.56 5.39,1.17 7.95,2.11 0.97,0.36 1.95,0.83 2.72,1.53 0.84,0.77 1.29,1.77 1.4,2.91 0.13,1.41 0,2.84 -0.05,4.24" />
	<path
   inkscape:connector-curvature="0"
   id="path849"
   d="m 154.67,129.88 c -0.33,-1.09 -1.52,-1.22 -2.48,-1.3 -2.14,-0.18 -4.29,-0.09 -6.43,-0.2 -1.93,-0.1 -4.03,-0.35 -5.74,-1.32 -0.06,-0.04 -0.15,-0.08 -0.22,-0.13 0.05,-0.06 0.13,-0.12 0.19,-0.16 0.37,-0.26 0.82,-0.45 1.23,-0.61 0.9,-0.35 1.84,-0.6 2.77,-0.86 1.94,-0.55 3.94,-1.22 5.32,-2.77 0.33,-0.37 0.4,-0.98 0,-1.34 -1.7,-1.55 -3.93,-1.86 -6.14,-2.09 -0.48,-0.05 -0.96,-0.09 -1.44,-0.16 -0.25,-0.03 -0.49,-0.07 -0.74,-0.11 -0.18,-0.03 -0.47,-0.04 -0.63,-0.13 0.01,-0.08 0.06,-0.21 0.07,-0.23 0.08,-0.24 0.22,-0.47 0.35,-0.69 0.26,-0.45 0.55,-0.87 0.89,-1.27 0.71,-0.82 1.52,-1.43 2.43,-1.99 0.96,-0.59 1.99,-1.49 1.71,-2.75 -0.25,-1.1 -1.25,-1.52 -2.27,-1.59 -0.83,-0.05 -1.68,0.17 -2.45,-0.08 -1.71,-0.54 -1.6,-2.95 -2.47,-4.19 -0.43,-0.61 -0.78,-0.67 -1.39,-0.63 -2.96,0.16 -4.22,3.79 -5.38,6.72 -0.3,0.76 -0.62,1.52 -1.03,2.23 -0.36,0.63 -0.82,1.42 -1.46,1.79 -0.18,0.1 -0.27,0.16 -0.37,0.07 -0.13,-0.12 -0.16,-0.5 -0.17,-0.7 -0.05,-0.97 0.04,-1.97 0.11,-2.94 0.16,-1.99 0.47,-3.97 0.92,-5.92 0.41,-1.78 1.12,-3.81 -0.1,-5.44 -1.08,-1.44 -3.08,-1.6 -4.25,-0.17 -0.51,0.63 -0.83,1.39 -1.03,2.18 -0.16,0.62 -0.26,1.28 -0.56,1.85 -0.29,0.55 -0.75,0.88 -1.4,0.61 -0.78,-0.32 -1.16,-1.16 -1.4,-1.91 -0.68,-2.14 -0.75,-4.57 -2.1,-6.37 -0.38,-0.51 -0.44,-0.48 -0.78,-0.8 -0.24,-0.17 -0.49,-0.35 -0.73,-0.52 -0.44,-0.32 -1.02,-0.04 -1.3,0.34 -1.71,2.37 -1.84,5.38 -1.98,8.19 -0.07,1.37 -0.14,2.74 -0.45,4.08 -0.1,0.44 -0.23,1.21 -0.69,1.43 -0.44,0.21 -0.94,-0.28 -1.22,-0.57 -0.61,-0.63 -1.05,-1.42 -1.54,-2.14 -0.58,-0.87 -1.15,-1.73 -1.73,-2.6 -0.3,-0.46 -0.81,-0.56 -1.3,-0.34 -1.4,0.64 -1.71,2.31 -1.67,3.7 0.02,0.64 0.12,1.27 0.05,1.91 -0.04,0.44 -0.19,1.02 -0.48,1.25 0,0 -0.12,0.08 -0.16,0.09 -0.04,0.01 -0.21,0.02 -0.3,0.01 -0.46,-0.05 -0.94,-0.26 -1.38,-0.4 -0.95,-0.3 -1.91,-0.6 -2.86,-0.9 -0.95,-0.3 -1.91,-0.6 -2.86,-0.9 -0.83,-0.26 -1.73,-0.65 -2.62,-0.57 -0.9,0.08 -1.67,0.68 -1.88,1.58 -0.2,0.88 0.1,1.76 0.68,2.43 0.57,0.65 1.39,1.05 2.13,1.49 0.86,0.5 1.71,1.02 2.55,1.55 0.82,0.51 1.62,1.04 2.42,1.58 0.38,0.25 0.75,0.51 1.12,0.77 0.1,0.07 0.56,0.36 0.55,0.49 -0.01,0.14 -0.45,0.35 -0.55,0.41 -0.3,0.18 -0.61,0.32 -0.94,0.45 -0.72,0.28 -1.46,0.49 -2.17,0.79 -0.82,0.34 -1.84,0.82 -2.3,1.62 -0.68,1.17 0.35,2.01 1.22,2.6 1.6,1.08 3.2,2.17 4.79,3.25 -1.72,1.8 -4.37,2.54 -6.76,2.94 -3.42,0.57 -6.9,0.61 -10.1,2.11 -0.64,0.3 -0.6,1.32 0,1.64 3.52,1.85 7.51,1.47 11.35,1.61 0.93,0.03 1.86,0.1 2.77,0.26 0.73,0.13 1.48,0.3 2.09,0.76 0.21,0.16 0.4,0.34 0.49,0.59 0.08,0.2 0.04,0.36 -0.03,0.56 0,0 0,0.01 0,0.01 -0.01,0.01 -0.02,0.02 -0.03,0.04 -0.03,0.05 -0.06,0.1 -0.09,0.15 0,0 -0.01,0.02 -0.02,0.03 -0.04,0.04 -0.08,0.09 -0.12,0.13 -0.27,0.25 -0.33,0.3 -0.6,0.49 -1.17,0.81 -2.65,1.55 -2.95,3.08 -0.1,0.52 0.14,1 0.66,1.17 1.09,0.35 2.24,0.38 3.37,0.51 0.86,0.09 1.74,0.3 2.41,0.89 0.61,0.54 0.68,1.07 0.46,1.82 -0.27,0.92 -0.56,1.98 0.2,2.76 0.8,0.83 2.01,0.59 3.02,0.4 0.97,-0.18 1.94,-0.43 2.93,-0.39 1.72,0.07 2.31,1.7 2.4,3.18 0.13,2.26 -0.47,4.57 0.76,6.64 0.28,0.48 1.1,0.68 1.49,0.19 1.13,-1.42 2.26,-2.83 3.39,-4.25 1.1,-1.38 2.15,-2.85 3.34,-4.16 0.33,-0.36 0.77,-0.83 1.3,-0.66 0.5,0.16 0.85,0.71 1.08,1.15 0.66,1.24 0.86,2.7 2.04,3.62 0.36,0.28 1,0.44 1.34,0 l 1.69,-2.16 c 0.47,-0.61 0.93,-1.39 1.53,-1.88 0.49,-0.39 1.19,0.16 1.62,0.42 0.7,0.42 1.42,0.81 2.17,1.14 1.28,0.56 2.98,1.4 4.41,0.92 0.74,-0.25 1.26,-0.84 1.36,-1.62 0.11,-0.88 -0.37,-1.76 -0.68,-2.56 -0.59,-1.55 -1.19,-3.09 -1.78,-4.64 0.76,0.03 1.51,0.06 2.27,0.1 1.1,0.05 2.28,0.19 3.19,-0.56 1.47,-1.23 0.68,-3.46 -0.4,-4.65 -0.58,-0.64 -1.33,-1.11 -1.84,-1.81 -0.42,-0.56 -0.5,-1.13 -0.13,-1.63 0.32,-0.44 1.01,-0.78 1.59,-0.99 0.87,-0.31 1.79,-0.47 2.68,-0.69 1.14,-0.27 2.28,-0.58 3.41,-0.91 1.12,-0.33 2.29,-0.64 3.36,-1.11 0.88,-0.41 1.72,-1.26 1.4,-2.31 M 117.74,98.41 c 1.07,1.48 0.9,3.54 1.4,5.29 0.5,1.77 1.51,3.6 3.54,3.83 1.85,0.2 2.91,-1.36 3.36,-2.93 0.19,-0.66 0.28,-1.37 0.6,-1.99 0.22,-0.43 0.58,-0.96 1.08,-0.8 0.65,0.21 0.83,1.03 0.82,1.62 -0.02,0.99 -0.39,1.99 -0.61,2.95 -0.46,2.05 -0.76,4.15 -0.92,6.25 -0.07,0.95 -0.17,1.94 -0.09,2.89 0.07,0.84 0.32,1.72 1.07,2.21 1.84,1.19 3.61,-1.06 4.42,-2.46 0.98,-1.7 1.47,-3.62 2.37,-5.36 0.53,-1.02 1.03,-2.46 2.15,-2.69 1.71,-0.35 1.16,2.52 2.2,3.43 0.79,0.7 1.35,1.38 2.41,1.47 0.43,0.04 0.86,-0.01 1.29,-0.03 0.24,-0.01 0.48,-0.02 0.71,0 0.06,0 0.09,0.01 0.11,0 0.02,0 0.04,0.01 0.08,0.02 0.03,0.01 0.3,0.08 0.16,0.03 0.04,0.01 0.06,0.02 0.07,0.02 0,0.01 0.01,0.02 0.03,0.03 -0.01,0.02 -0.03,0.05 -0.06,0.1 -0.25,0.41 -0.86,0.64 -1.25,0.89 -0.99,0.62 -1.89,1.42 -2.62,2.34 -0.7,0.89 -1.58,2.06 -1.57,3.25 0.02,1.52 1.52,1.84 2.72,2 1.9,0.26 4.21,0.19 5.95,1.17 -0.99,0.73 -2.19,1.12 -3.39,1.46 -1.67,0.48 -3.64,0.86 -5.02,1.96 -0.87,0.69 -1.19,1.87 -0.41,2.76 0.65,0.75 1.82,1.11 2.73,1.4 1.99,0.63 4.11,0.76 6.18,0.8 1.05,0.02 2.1,0.02 3.15,0.05 0.49,0.01 0.99,0.04 1.48,0.07 0.18,0.01 0.35,0.03 0.53,0.04 -0.49,0.2 -1.02,0.34 -1.52,0.5 -1.09,0.35 -2.19,0.67 -3.3,0.97 -1.83,0.48 -3.85,0.7 -5.52,1.64 -1.58,0.89 -2.45,2.6 -1.63,4.34 0.43,0.91 1.24,1.58 1.97,2.25 0.54,0.5 1.08,1.16 1.12,1.86 0.01,0.3 -0.01,0.44 -0.28,0.55 -0.39,0.16 -0.94,0.06 -1.35,0.04 -1.38,-0.06 -2.76,-0.12 -4.14,-0.17 -0.57,-0.02 -1.13,0.63 -0.91,1.2 0.63,1.64 1.26,3.29 1.89,4.93 0.31,0.8 0.65,1.59 0.92,2.4 0.07,0.2 0.11,0.33 0.06,0.42 -0.01,0.01 -0.03,0.01 -0.06,0.02 -0.11,0.03 -0.17,0.03 -0.32,0.03 -0.58,-0.01 -1.24,-0.29 -1.81,-0.5 -0.72,-0.27 -1.41,-0.6 -2.08,-0.96 -1.32,-0.72 -2.86,-1.92 -4.37,-0.88 -0.73,0.51 -1.23,1.33 -1.77,2.02 l -1.15,1.48 c -0.38,-0.65 -0.59,-1.42 -0.89,-2.1 -0.49,-1.07 -1.39,-2.17 -2.61,-2.38 -1.46,-0.26 -2.53,0.72 -3.38,1.78 -0.97,1.22 -1.95,2.44 -2.92,3.66 -0.78,0.98 -1.56,1.96 -2.34,2.94 -0.23,-1.38 0.08,-2.88 0,-4.25 -0.12,-1.95 -0.82,-3.96 -2.76,-4.75 -0.99,-0.41 -2.05,-0.36 -3.09,-0.21 -0.5,0.07 -1,0.17 -1.49,0.27 -0.47,0.09 -0.94,0.12 -1.4,0.2 -0.04,0.01 -0.07,0.01 -0.09,0 0,-0.08 0.01,-0.2 0.03,-0.28 0.1,-0.46 0.28,-0.89 0.36,-1.36 0.17,-1.05 -0.2,-2.03 -0.92,-2.8 -0.76,-0.82 -1.84,-1.3 -2.93,-1.5 -0.87,-0.16 -1.77,-0.18 -2.65,-0.31 0.03,-0.02 0.05,-0.05 0.08,-0.07 0,0 0.13,-0.1 0.14,-0.12 0.51,-0.38 1.07,-0.69 1.58,-1.07 0.6,-0.45 1.13,-0.95 1.4,-1.66 0.3,-0.76 0.22,-1.65 -0.22,-2.35 -1.03,-1.63 -3.12,-1.99 -4.88,-2.19 -2,-0.23 -4.02,-0.16 -6.03,-0.21 -1.37,-0.03 -2.77,-0.13 -4.1,-0.45 2.58,-0.67 5.34,-0.72 7.95,-1.22 3.04,-0.58 6.04,-1.81 7.9,-4.39 0.31,-0.43 0.05,-1.03 -0.34,-1.3 l -4.85,-3.29 c -0.36,-0.25 -0.73,-0.49 -1.09,-0.74 0.01,0.01 -0.03,-0.02 -0.08,-0.06 0,0 0.01,-0.01 0.01,-0.01 0.53,-0.41 1.17,-0.65 1.8,-0.87 1.32,-0.46 3.24,-0.92 3.96,-2.27 0.99,-1.87 -1.44,-3.13 -2.69,-3.96 -1.53,-1.02 -3.09,-2 -4.67,-2.93 -0.59,-0.34 -1.46,-0.69 -1.82,-1.3 -0.1,-0.17 -0.15,-0.37 -0.11,-0.53 0.05,-0.16 0.18,-0.16 0.39,-0.14 0.8,0.08 1.63,0.47 2.39,0.71 0.93,0.29 1.85,0.58 2.77,0.87 0.93,0.29 1.85,0.58 2.77,0.87 0.86,0.27 1.72,0.49 2.58,0.11 1.37,-0.61 1.75,-2.33 1.72,-3.69 -0.01,-0.71 -0.14,-1.42 -0.05,-2.13 0.02,-0.18 0.05,-0.34 0.1,-0.49 0.33,0.49 0.66,0.99 0.99,1.48 0.51,0.76 0.99,1.56 1.58,2.27 1.06,1.27 2.95,2.19 4.34,0.8 1.12,-1.12 1.26,-3.07 1.41,-4.56 0.15,-1.58 0.16,-3.17 0.31,-4.74 0.13,-1.33 -0.26,-3.46 1.02,-3.8 0.09,-0.01 0.32,0.2 0.4,0.31" />
	<path
   inkscape:connector-curvature="0"
   id="path851"
   d="m 36.75,39.98 c 1.8,0 3.25,0.98 3.25,2.19 0,1.21 -1.46,2.19 -3.25,2.19 -1.8,0 -3.25,-0.98 -3.25,-2.19 -0.01,-1.21 1.45,-2.19 3.25,-2.19"
   class="st2" />
	<ellipse
   id="ellipse853"
   ry="2.1900001"
   rx="3.25"
   cy="42.169998"
   cx="36.75"
   class="st4" />
	<path
   inkscape:connector-curvature="0"
   id="path855"
   d="m 33.42,18.52 c 0.45,0 0.81,2.17 0.81,4.85 0,2.68 -0.36,4.85 -0.81,4.85 -0.45,0 -0.81,-2.17 -0.81,-4.85 -0.01,-2.67 0.36,-4.85 0.81,-4.85"
   class="st2" />
	<ellipse
   id="ellipse857"
   ry="4.8499999"
   rx="0.81"
   cy="23.379999"
   cx="33.419998"
   class="st4" />
	<path
   inkscape:connector-curvature="0"
   id="path859"
   d="m 35.35,18.52 c 0.45,0 0.81,2.17 0.81,4.85 0,2.68 -0.36,4.85 -0.81,4.85 -0.45,0 -0.81,-2.17 -0.81,-4.85 0,-2.67 0.36,-4.85 0.81,-4.85"
   class="st2" />
	<ellipse
   id="ellipse861"
   ry="4.8499999"
   rx="0.81"
   cy="23.379999"
   cx="35.349998"
   class="st4" />
	<path
   inkscape:connector-curvature="0"
   id="path863"
   d="m 100.43,35.46 c 0,-0.45 2.17,-0.81 4.85,-0.81 2.68,0 4.85,0.36 4.85,0.81 0,0.45 -2.17,0.81 -4.85,0.81 -2.68,0 -4.85,-0.36 -4.85,-0.81"
   class="st2" />
	<path
   inkscape:connector-curvature="0"
   id="path865"
   d="m 100.43,35.46 c 0,-0.45 2.17,-0.81 4.85,-0.81 2.68,0 4.85,0.36 4.85,0.81 0,0.45 -2.17,0.81 -4.85,0.81 -2.68,0 -4.85,-0.36 -4.85,-0.81 z"
   class="st4" />
	<path
   inkscape:connector-curvature="0"
   id="path867"
   d="m 100.43,33.52 c 0,-0.45 2.17,-0.81 4.85,-0.81 2.68,0 4.85,0.36 4.85,0.81 0,0.45 -2.17,0.81 -4.85,0.81 -2.68,0.01 -4.85,-0.36 -4.85,-0.81"
   class="st2" />
	<path
   inkscape:connector-curvature="0"
   id="path869"
   d="m 100.43,33.52 c 0,-0.45 2.17,-0.81 4.85,-0.81 2.68,0 4.85,0.36 4.85,0.81 0,0.45 -2.17,0.81 -4.85,0.81 -2.68,0.01 -4.85,-0.36 -4.85,-0.81 z"
   class="st4" />
	<path
   inkscape:connector-curvature="0"
   id="path871"
   d="m 99.61,108.19 c 0.39,-0.22 1.79,1.47 3.13,3.8 1.34,2.32 2.11,4.38 1.72,4.61 -0.39,0.22 -1.79,-1.47 -3.13,-3.8 -1.34,-2.32 -2.11,-4.38 -1.72,-4.61"
   class="st2" />
	<path
   inkscape:connector-curvature="0"
   id="path873"
   d="m 99.61,108.19 c 0.39,-0.22 1.79,1.47 3.13,3.8 1.34,2.32 2.11,4.38 1.72,4.61 -0.39,0.22 -1.79,-1.47 -3.13,-3.8 -1.34,-2.32 -2.11,-4.38 -1.72,-4.61 z"
   class="st4" />
	<path
   inkscape:connector-curvature="0"
   id="path875"
   d="m 101.28,107.23 c 0.39,-0.22 1.79,1.47 3.13,3.8 1.34,2.32 2.11,4.38 1.72,4.61 -0.39,0.22 -1.79,-1.48 -3.13,-3.8 -1.33,-2.33 -2.1,-4.39 -1.72,-4.61"
   class="st2" />
	<path
   inkscape:connector-curvature="0"
   id="path877"
   d="m 101.28,107.23 c 0.39,-0.22 1.79,1.47 3.13,3.8 1.34,2.32 2.11,4.38 1.72,4.61 -0.39,0.22 -1.79,-1.48 -3.13,-3.8 -1.33,-2.33 -2.1,-4.39 -1.72,-4.61 z"
   class="st4" />
	<path
   inkscape:connector-curvature="0"
   id="path879"
   d="m 37.3,8.11 c -0.27,1.45 -0.71,3.78 -1.05,5.62"
   class="st4" />
	<path
   inkscape:connector-curvature="0"
   id="path881"
   d="m 35.12,16.49 c 0,-1.15 -0.17,-2.64 -0.56,-3.67 l 1.46,1.24 1.92,0.02 c -0.97,0.52 -2.07,1.54 -2.82,2.41" />
	<path
   inkscape:connector-curvature="0"
   id="path883"
   d="m 58.85,21.63 c 0.45,0 0.81,2.17 0.81,4.85 0,2.68 -0.36,4.85 -0.81,4.85 -0.45,0 -0.81,-2.17 -0.81,-4.85 0,-2.68 0.36,-4.85 0.81,-4.85"
   class="st2" />
	<ellipse
   id="ellipse885"
   ry="4.8499999"
   rx="0.81"
   cy="26.48"
   cx="58.849998"
   class="st4" />
	<path
   inkscape:connector-curvature="0"
   id="path887"
   d="m 60.79,21.63 c 0.45,0 0.81,2.17 0.81,4.85 0,2.68 -0.36,4.85 -0.81,4.85 -0.45,0 -0.81,-2.17 -0.81,-4.85 -0.01,-2.68 0.36,-4.85 0.81,-4.85"
   class="st2" />
	<ellipse
   id="ellipse889"
   ry="4.8499999"
   rx="0.81"
   cy="26.48"
   cx="60.790001"
   class="st4" />
	<path
   inkscape:connector-curvature="0"
   id="path891"
   d="m 59.57,11.86 c 0.01,1.48 0.02,3.85 0.04,5.71"
   class="st4" />
	<path
   inkscape:connector-curvature="0"
   id="path893"
   d="M 59.76,19.85 C 59.3,18.8 58.54,17.51 57.77,16.72 l 1.84,0.54 1.76,-0.76 c -0.68,0.88 -1.28,2.26 -1.61,3.35" />
	<path
   inkscape:connector-curvature="0"
   id="path895"
   d="m 24.91,28.67 c 0.45,0 0.81,2.17 0.81,4.85 0,2.68 -0.36,4.85 -0.81,4.85 -0.45,0 -0.81,-2.17 -0.81,-4.85 0,-2.68 0.36,-4.85 0.81,-4.85"
   class="st2" />
	<ellipse
   id="ellipse897"
   ry="4.8499999"
   rx="0.81"
   cy="33.52"
   cx="24.91"
   class="st4" />
	<path
   inkscape:connector-curvature="0"
   id="path899"
   d="m 26.85,28.67 c 0.45,0 0.81,2.17 0.81,4.85 0,2.68 -0.36,4.85 -0.81,4.85 -0.45,0 -0.81,-2.17 -0.81,-4.85 -0.01,-2.68 0.36,-4.85 0.81,-4.85"
   class="st2" />
	<ellipse
   id="ellipse901"
   ry="4.8499999"
   rx="0.81"
   cy="33.52"
   cx="26.85"
   class="st4" />
	<path
   inkscape:connector-curvature="0"
   id="path903"
   d="m 25.63,19.13 c 0.01,1.48 0.02,3.85 0.04,5.71"
   class="st4" />
	<path
   inkscape:connector-curvature="0"
   id="path905"
   d="M 25.82,27.12 C 25.36,26.07 24.6,24.78 23.83,23.99 l 1.84,0.54 1.76,-0.76 c -0.68,0.88 -1.28,2.26 -1.61,3.35" />
	<path
   inkscape:connector-curvature="0"
   id="path907"
   d="m 49.37,36.74 c 1.8,0 3.25,0.98 3.25,2.19 0,1.21 -1.46,2.19 -3.25,2.19 -1.8,0 -3.25,-0.98 -3.25,-2.19 0,-1.21 1.46,-2.19 3.25,-2.19"
   class="st2" />
	<ellipse
   id="ellipse909"
   ry="2.1900001"
   rx="3.25"
   cy="38.93"
   cx="49.369999"
   class="st4" />
	<path
   inkscape:connector-curvature="0"
   id="path911"
   d="m 28.27,38.37 c 2.64,2.25 0,0 2.64,2.25"
   class="st4" />
	<path
   inkscape:connector-curvature="0"
   id="path913"
   d="m 32.34,42.46 c -0.96,-0.64 -2.29,-1.32 -3.36,-1.57 l 1.8,-0.52 c 0.03,-0.01 0.06,-0.03 0.08,-0.05 l 1.05,-1.54 c -0.11,1.1 0.12,2.58 0.43,3.68" />
	<path
   inkscape:connector-curvature="0"
   id="path915"
   d="m 34.77,29.52 c 1.16,1.86 1.58,2.96 2.3,5.7"
   class="st4" />
	<path
   inkscape:connector-curvature="0"
   id="path917"
   d="M 37.63,37.44 C 36.98,36.5 35.98,35.37 35.08,34.75 l 1.91,0.18 1.58,-1.08 c -0.5,0.98 -0.82,2.44 -0.94,3.59" />
	<path
   inkscape:connector-curvature="0"
   id="path919"
   d="m 59.66,31.56 c -0.69,2.46 -2.14,2.53 -4.37,4.83"
   class="st4" />
	<path
   inkscape:connector-curvature="0"
   id="path921"
   d="m 52.63,37.51 c 0.87,-0.74 1.9,-1.84 2.43,-2.81 l 0.01,1.92 1.23,1.47 c -1.04,-0.4 -2.52,-0.58 -3.67,-0.58" />
	<path
   inkscape:connector-curvature="0"
   id="path923"
   d="m 39.6,57.17 c 1.8,0 3.25,0.98 3.25,2.19 0,1.21 -1.46,2.19 -3.25,2.19 -1.8,0 -3.25,-0.98 -3.25,-2.19 0,-1.2 1.46,-2.19 3.25,-2.19"
   class="st2" />
	<ellipse
   id="ellipse925"
   ry="2.1900001"
   rx="3.25"
   cy="59.369999"
   cx="39.599998"
   class="st4" />
	<path
   inkscape:connector-curvature="0"
   id="path927"
   d="m 39.4,61.83 c -0.27,2.35 -0.53,5.72 -1.15,9.36"
   class="st4" />
	<path
   inkscape:connector-curvature="0"
   id="path929"
   d="m 37.82,73.44 c -0.2,-1.13 -0.63,-2.57 -1.2,-3.51 l 1.66,0.96 1.89,-0.32 c -0.86,0.69 -1.77,1.88 -2.35,2.87" />
	<path
   inkscape:connector-curvature="0"
   id="path931"
   d="m 50.52,56.65 c 1.8,0 3.25,0.98 3.25,2.19 0,1.21 -1.46,2.19 -3.25,2.19 -1.8,0 -3.25,-0.98 -3.25,-2.19 0,-1.21 1.45,-2.19 3.25,-2.19"
   class="st2" />
	<ellipse
   id="ellipse933"
   ry="2.1900001"
   rx="3.25"
   cy="58.84"
   cx="50.52"
   class="st4" />
	<path
   inkscape:connector-curvature="0"
   id="path935"
   d="m 51.33,61.83 c 1.19,1.91 1.05,5.59 1.63,9.36"
   class="st4" />
	<path
   inkscape:connector-curvature="0"
   id="path937"
   d="m 53.4,73.44 c -0.59,-0.98 -1.51,-2.17 -2.37,-2.85 l 1.89,0.31 1.65,-0.98 c -0.56,0.95 -0.98,2.39 -1.17,3.52" />
	<path
   inkscape:connector-curvature="0"
   id="path939"
   d="m 35.03,124.94 c 1.8,0 3.25,0.98 3.25,2.19 0,1.21 -1.46,2.19 -3.25,2.19 -1.8,0 -3.25,-0.98 -3.25,-2.19 0,-1.21 1.45,-2.19 3.25,-2.19"
   class="st2" />
	<ellipse
   id="ellipse941"
   ry="2.1900001"
   rx="3.25"
   cy="127.13"
   cx="35.029999"
   class="st4" />
	<path
   inkscape:connector-curvature="0"
   id="path943"
   d="m 30.43,103.91 c 0.45,0 0.81,2.17 0.81,4.85 0,2.68 -0.36,4.85 -0.81,4.85 -0.45,0 -0.81,-2.17 -0.81,-4.85 -0.01,-2.67 0.36,-4.85 0.81,-4.85"
   class="st2" />
	<path
   inkscape:connector-curvature="0"
   id="path945"
   d="m 30.43,103.91 c 0.45,0 0.81,2.17 0.81,4.85 0,2.68 -0.36,4.85 -0.81,4.85 -0.45,0 -0.81,-2.17 -0.81,-4.85 -0.01,-2.67 0.36,-4.85 0.81,-4.85 z"
   class="st4" />
	<path
   inkscape:connector-curvature="0"
   id="path947"
   d="m 32.36,103.91 c 0.45,0 0.81,2.17 0.81,4.85 0,2.68 -0.36,4.85 -0.81,4.85 -0.45,0 -0.81,-2.17 -0.81,-4.85 0,-2.67 0.36,-4.85 0.81,-4.85"
   class="st2" />
	<path
   inkscape:connector-curvature="0"
   id="path949"
   d="m 32.36,103.91 c 0.45,0 0.81,2.17 0.81,4.85 0,2.68 -0.36,4.85 -0.81,4.85 -0.45,0 -0.81,-2.17 -0.81,-4.85 0,-2.67 0.36,-4.85 0.81,-4.85 z"
   class="st4" />
	<path
   inkscape:connector-curvature="0"
   id="path951"
   d="m 31.39,93.94 c 0.01,1.48 0.02,3.85 0.04,5.71"
   class="st4" />
	<path
   inkscape:connector-curvature="0"
   id="path953"
   d="m 31.58,101.94 c -0.46,-1.05 -1.22,-2.34 -1.99,-3.13 l 1.84,0.54 1.76,-0.76 c -0.68,0.88 -1.28,2.25 -1.61,3.35" />
	<path
   inkscape:connector-curvature="0"
   id="path955"
   d="m 31.78,114.91 c 1.16,1.86 1.58,2.96 2.3,5.7"
   class="st4" />
	<path
   inkscape:connector-curvature="0"
   id="path957"
   d="m 34.64,122.83 c -0.65,-0.94 -1.65,-2.07 -2.55,-2.69 l 1.91,0.18 1.58,-1.08 c -0.5,0.98 -0.82,2.45 -0.94,3.59" />
	<path
   inkscape:connector-curvature="0"
   id="path959"
   d="m 37.89,142.13 c 1.8,0 3.25,0.98 3.25,2.19 0,1.21 -1.46,2.19 -3.25,2.19 -1.8,0 -3.25,-0.98 -3.25,-2.19 0,-1.21 1.45,-2.19 3.25,-2.19"
   class="st2" />
	<ellipse
   id="ellipse961"
   ry="2.1900001"
   rx="3.25"
   cy="144.32001"
   cx="37.889999"
   class="st4" />
	<path
   inkscape:connector-curvature="0"
   id="path963"
   d="m 37.73,147.46 c -0.28,2.42 -0.33,4.55 -1.15,9.36"
   class="st4" />
	<path
   inkscape:connector-curvature="0"
   id="path965"
   d="m 36.29,158.7 c -0.2,-1.13 -0.63,-2.57 -1.2,-3.51 l 1.66,0.96 1.89,-0.32 c -0.86,0.69 -1.77,1.88 -2.35,2.87" />
	<path
   inkscape:connector-curvature="0"
   id="path967"
   d="m 93.18,34.65 c 1.48,-0.02 2.19,0.03 4.06,-0.01"
   class="st4" />
	<path
   inkscape:connector-curvature="0"
   id="path969"
   d="m 100.07,34.33 c -1.03,0.5 -2.3,1.31 -3.05,2.11 l 0.47,-1.86 -0.83,-1.73 c 0.91,0.64 2.3,1.18 3.41,1.48" />
	<path
   inkscape:connector-curvature="0"
   id="path971"
   d="m 100.17,50.77 c 0,-0.45 2.17,-0.81 4.85,-0.81 2.68,0 4.85,0.36 4.85,0.81 0,0.45 -2.17,0.81 -4.85,0.81 -2.68,0 -4.85,-0.36 -4.85,-0.81"
   class="st2" />
	<path
   inkscape:connector-curvature="0"
   id="path973"
   d="m 100.17,50.77 c 0,-0.45 2.17,-0.81 4.85,-0.81 2.68,0 4.85,0.36 4.85,0.81 0,0.45 -2.17,0.81 -4.85,0.81 -2.68,0 -4.85,-0.36 -4.85,-0.81 z"
   class="st4" />
	<path
   inkscape:connector-curvature="0"
   id="path975"
   d="m 100.17,48.83 c 0,-0.45 2.17,-0.81 4.85,-0.81 2.68,0 4.85,0.36 4.85,0.81 0,0.45 -2.17,0.81 -4.85,0.81 -2.68,0 -4.85,-0.36 -4.85,-0.81"
   class="st2" />
	<path
   inkscape:connector-curvature="0"
   id="path977"
   d="m 100.17,48.83 c 0,-0.45 2.17,-0.81 4.85,-0.81 2.68,0 4.85,0.36 4.85,0.81 0,0.45 -2.17,0.81 -4.85,0.81 -2.68,0 -4.85,-0.36 -4.85,-0.81 z"
   class="st4" />
	<path
   inkscape:connector-curvature="0"
   id="path979"
   d="m 93.69,49.77 c 1.48,-0.01 2.14,-0.01 4,-0.02"
   class="st4" />
	<path
   inkscape:connector-curvature="0"
   id="path981"
   d="m 99.98,49.6 c -1.05,0.46 -2.34,1.22 -3.13,1.99 l 0.54,-1.84 -0.76,-1.76 c 0.88,0.67 2.25,1.27 3.35,1.61" />
	<path
   inkscape:connector-curvature="0"
   id="path983"
   d="m 119.84,47.12 c 0,-1.8 0.98,-3.25 2.19,-3.25 1.21,0 2.19,1.46 2.19,3.25 0,1.8 -0.98,3.25 -2.19,3.25 -1.21,0 -2.19,-1.45 -2.19,-3.25"
   class="st2" />
	<path
   inkscape:connector-curvature="0"
   id="path985"
   d="m 119.84,47.12 c 0,-1.8 0.98,-3.25 2.19,-3.25 1.21,0 2.19,1.46 2.19,3.25 0,1.8 -0.98,3.25 -2.19,3.25 -1.21,0 -2.19,-1.45 -2.19,-3.25 z"
   class="st4" />
	<path
   inkscape:connector-curvature="0"
   id="path987"
   d="m 109.09,49.99 c 1.86,-1.16 2.96,-1.58 5.7,-2.3"
   class="st4" />
	<path
   inkscape:connector-curvature="0"
   id="path989"
   d="m 117,47.13 c -0.94,0.65 -2.07,1.65 -2.69,2.55 l 0.18,-1.91 -1.08,-1.58 c 0.99,0.5 2.45,0.82 3.59,0.94" />
	<path
   inkscape:connector-curvature="0"
   id="path991"
   d="m 110.38,36.7 c 1.22,-0.01 7.52,4.75 8.11,5.39"
   class="st4" />
	<path
   inkscape:connector-curvature="0"
   id="path993"
   d="m 120.06,43.75 c -1.03,-0.51 -2.45,-1 -3.54,-1.11 l 1.76,-0.77 0.86,-1.72 c 0.04,1.11 0.47,2.55 0.92,3.6" />
	<path
   inkscape:connector-curvature="0"
   id="path995"
   d="m 124.88,32.63 c 1.8,0 3.25,0.98 3.25,2.19 0,1.21 -1.46,2.19 -3.25,2.19 -1.8,0 -3.25,-0.98 -3.25,-2.19 0,-1.21 1.45,-2.19 3.25,-2.19"
   class="st2" />
	<ellipse
   id="ellipse997"
   ry="2.1900001"
   rx="3.25"
   cy="34.82"
   cx="124.88"
   class="st4" />
	<path
   inkscape:connector-curvature="0"
   id="path999"
   d="m 128.13,35.41 c 8.86,-0.27 7.52,1.24 12.01,1.29"
   class="st4" />
	<path
   inkscape:connector-curvature="0"
   id="path1001"
   d="m 143.13,36.53 c -1.06,0.44 -2.37,1.16 -3.18,1.91 l 0.59,-1.83 -0.71,-1.78 c 0.85,0.7 2.21,1.34 3.3,1.7" />
	<path
   inkscape:connector-curvature="0"
   id="path1003"
   d="m 116.57,125.46 c 1.8,0 3.25,0.98 3.25,2.19 0,1.21 -1.46,2.19 -3.25,2.19 -1.8,0 -3.25,-0.98 -3.25,-2.19 0,-1.21 1.45,-2.19 3.25,-2.19"
   class="st2" />
	<path
   inkscape:connector-curvature="0"
   id="path1005"
   d="m 116.57,125.46 c 1.8,0 3.25,0.98 3.25,2.19 0,1.21 -1.46,2.19 -3.25,2.19 -1.8,0 -3.25,-0.98 -3.25,-2.19 0,-1.21 1.45,-2.19 3.25,-2.19 z"
   class="st4" />
	<path
   inkscape:connector-curvature="0"
   id="path1007"
   d="m 111.88,102.02 c 0.42,-0.15 1.51,1.76 2.42,4.28 0.92,2.52 1.32,4.68 0.9,4.84 -0.42,0.15 -1.51,-1.76 -2.42,-4.28 -0.92,-2.52 -1.32,-4.68 -0.9,-4.84"
   class="st2" />
	<path
   inkscape:connector-curvature="0"
   id="path1009"
   d="m 111.88,102.02 c 0.42,-0.15 1.51,1.76 2.42,4.28 0.92,2.52 1.32,4.68 0.9,4.84 -0.42,0.15 -1.51,-1.76 -2.42,-4.28 -0.92,-2.52 -1.32,-4.68 -0.9,-4.84 z"
   class="st4" />
	<path
   inkscape:connector-curvature="0"
   id="path1011"
   d="m 113.7,101.36 c 0.42,-0.15 1.51,1.76 2.42,4.28 0.92,2.52 1.32,4.68 0.9,4.84 -0.42,0.15 -1.51,-1.76 -2.42,-4.28 -0.92,-2.52 -1.32,-4.68 -0.9,-4.84"
   class="st2" />
	<path
   inkscape:connector-curvature="0"
   id="path1013"
   d="m 113.7,101.36 c 0.42,-0.15 1.51,1.76 2.42,4.28 0.92,2.52 1.32,4.68 0.9,4.84 -0.42,0.15 -1.51,-1.76 -2.42,-4.28 -0.92,-2.52 -1.32,-4.68 -0.9,-4.84 z"
   class="st4" />
	<path
   inkscape:connector-curvature="0"
   id="path1015"
   d="m 112.93,91.43 c 0.01,1.48 0.02,3.85 0.04,5.71"
   class="st4" />
	<path
   inkscape:connector-curvature="0"
   id="path1017"
   d="m 113.12,99.43 c -0.46,-1.05 -1.22,-2.34 -1.99,-3.13 l 1.84,0.54 1.76,-0.76 c -0.68,0.87 -1.28,2.25 -1.61,3.35" />
	<path
   inkscape:connector-curvature="0"
   id="path1019"
   d="m 137.4,104.5 c 0.45,0 0.81,2.17 0.81,4.85 0,2.68 -0.36,4.85 -0.81,4.85 -0.45,0 -0.81,-2.17 -0.81,-4.85 0,-2.67 0.36,-4.85 0.81,-4.85"
   class="st2" />
	<path
   inkscape:connector-curvature="0"
   id="path1021"
   d="m 137.4,104.5 c 0.45,0 0.81,2.17 0.81,4.85 0,2.68 -0.36,4.85 -0.81,4.85 -0.45,0 -0.81,-2.17 -0.81,-4.85 0,-2.67 0.36,-4.85 0.81,-4.85 z"
   class="st4" />
	<path
   inkscape:connector-curvature="0"
   id="path1023"
   d="m 139.34,104.5 c 0.45,0 0.81,2.17 0.81,4.85 0,2.68 -0.36,4.85 -0.81,4.85 -0.45,0 -0.81,-2.17 -0.81,-4.85 -0.01,-2.67 0.36,-4.85 0.81,-4.85"
   class="st2" />
	<path
   inkscape:connector-curvature="0"
   id="path1025"
   d="m 139.34,104.5 c 0.45,0 0.81,2.17 0.81,4.85 0,2.68 -0.36,4.85 -0.81,4.85 -0.45,0 -0.81,-2.17 -0.81,-4.85 -0.01,-2.67 0.36,-4.85 0.81,-4.85 z"
   class="st4" />
	<path
   inkscape:connector-curvature="0"
   id="path1027"
   d="m 138.12,94.73 c 0.01,1.48 0.02,3.85 0.04,5.71"
   class="st4" />
	<path
   inkscape:connector-curvature="0"
   id="path1029"
   d="m 138.31,102.73 c -0.46,-1.05 -1.22,-2.34 -1.99,-3.13 l 1.84,0.54 1.76,-0.76 c -0.68,0.88 -1.28,2.25 -1.61,3.35" />
	<path
   inkscape:connector-curvature="0"
   id="path1031"
   d="m 99.25,97.07 c 0.01,1.48 0.02,3.85 0.04,5.71"
   class="st4" />
	<path
   inkscape:connector-curvature="0"
   id="path1033"
   d="m 99.43,105.07 c -0.46,-1.05 -1.22,-2.34 -1.99,-3.13 l 1.84,0.54 1.76,-0.76 c -0.67,0.88 -1.27,2.25 -1.61,3.35" />
	<path
   inkscape:connector-curvature="0"
   id="path1035"
   d="m 131.2,125.31 c 1.8,0 3.25,0.98 3.25,2.19 0,1.21 -1.46,2.19 -3.25,2.19 -1.8,0 -3.25,-0.98 -3.25,-2.19 0,-1.21 1.45,-2.19 3.25,-2.19"
   class="st2" />
	<ellipse
   id="ellipse1037"
   ry="2.1900001"
   rx="3.25"
   cy="127.5"
   cx="131.2"
   class="st4" />
	<path
   inkscape:connector-curvature="0"
   id="path1039"
   d="m 115.59,113.91 c 1.15,1.85 0.1,2.94 0.23,5.65"
   class="st4" />
	<path
   inkscape:connector-curvature="0"
   id="path1041"
   d="m 116.18,121.83 c -0.54,-1.01 -1.4,-2.24 -2.23,-2.96 l 1.88,0.4 1.7,-0.9 c -0.62,0.92 -1.11,2.34 -1.35,3.46" />
	<path
   inkscape:connector-curvature="0"
   id="path1043"
   d="m 137.92,114.34 c 0.03,2.62 -1.3,5.64 -2.9,8.03"
   class="st4" />
	<path
   inkscape:connector-curvature="0"
   id="path1045"
   d="m 133.64,124.21 c 0.32,-1.1 0.57,-2.58 0.48,-3.68 l 1.06,1.6 1.84,0.55 c -1.07,0.23 -2.42,0.9 -3.38,1.53" />
	<g
   id="g1155">
		<text
   id="text1047"
   class="st5 st6"
   transform="translate(19.1042,17.4448)">ligA</text>
		<text
   id="text1049"
   class="st5 st6"
   transform="translate(57.5705,9.7207)">ligC</text>
		<text
   id="text1057"
   transform="translate(47.5452,45.1313)"><tspan
     id="tspan1051"
     class="st5 st6"
     y="0"
     x="0">p</tspan><tspan
     id="tspan1053"
     class="st5 st6"
     y="0"
     x="3.4100001">r</tspan><tspan
     id="tspan1055"
     class="st5 st6"
     y="0"
     x="5.3200002">otE</tspan></text>
		<text
   id="text1059"
   class="st5 st6"
   transform="translate(34.616,6.4038)">ligB</text>
		<text
   id="text1067"
   transform="translate(24.0247,48.9982)"><tspan
     id="tspan1061"
     class="st5 st6"
     y="0"
     x="0">p</tspan><tspan
     id="tspan1063"
     class="st5 st6"
     y="0"
     x="3.4100001">r</tspan><tspan
     id="tspan1065"
     class="st5 st6"
     y="0"
     x="5.3200002">otF</tspan></text>
		<text
   id="text1075"
   transform="translate(25.7234,56.6788)"><tspan
     id="tspan1069"
     class="st5 st6"
     y="0"
     x="0">p</tspan><tspan
     id="tspan1071"
     class="st5 st6"
     y="0"
     x="3.4100001">r</tspan><tspan
     id="tspan1073"
     class="st5 st6"
     y="0"
     x="5.3200002">odA</tspan></text>
		<text
   id="text1083"
   transform="translate(44.6599,55.9897)"><tspan
     id="tspan1077"
     class="st5 st6"
     y="0"
     x="0">p</tspan><tspan
     id="tspan1079"
     class="st5 st6"
     y="0"
     x="3.4100001">r</tspan><tspan
     id="tspan1081"
     class="st5 st6"
     y="0"
     x="5.3200002">odD</tspan></text>
		<text
   id="text1085"
   class="st5 st6"
   transform="translate(51.0486,77.1172)">ligD</text>
		<text
   id="text1087"
   class="st5 st6"
   transform="translate(32.6985,77.2358)">ligA</text>
		<text
   id="text1089"
   class="st5 st6"
   transform="translate(27.4221,91.5957)">ECM</text>
		<text
   id="text1097"
   transform="translate(16.4866,129.2471)"><tspan
     id="tspan1091"
     class="st5 st6"
     y="0"
     x="0">p</tspan><tspan
     id="tspan1093"
     class="st5 st6"
     y="0"
     x="3.4100001">r</tspan><tspan
     id="tspan1095"
     class="st5 st6"
     y="0"
     x="5.3200002">otF</tspan></text>
		<text
   id="text1105"
   transform="translate(42.8565,145.9881)"><tspan
     id="tspan1099"
     class="st5 st6"
     y="0"
     x="0">p</tspan><tspan
     id="tspan1101"
     class="st5 st6"
     y="0"
     x="3.4100001">r</tspan><tspan
     id="tspan1103"
     class="st5 st6"
     y="0"
     x="5.3200002">odB</tspan></text>
		<text
   id="text1107"
   class="st5 st6"
   transform="translate(33.4358,162.6279)">ligB</text>
		<text
   id="text1109"
   class="st5 st6"
   transform="translate(83.177,35.6772)">ligA</text>
		<text
   id="text1111"
   class="st5 st6"
   transform="translate(83.7024,51.2358)">ligB</text>
		<text
   id="text1119"
   transform="translate(116.6667,54.4253)"><tspan
     id="tspan1113"
     class="st5 st6"
     y="0"
     x="0">p</tspan><tspan
     id="tspan1115"
     class="st5 st6"
     y="0"
     x="3.4100001">r</tspan><tspan
     id="tspan1117"
     class="st5 st6"
     y="0"
     x="5.3200002">otF</tspan></text>
		<text
   id="text1127"
   transform="translate(116.28,31.7187)"><tspan
     id="tspan1121"
     class="st5 st6"
     y="0"
     x="0">p</tspan><tspan
     id="tspan1123"
     class="st5 st6"
     y="0"
     x="3.4100001">r</tspan><tspan
     id="tspan1125"
     class="st5 st6"
     y="0"
     x="5.3200002">odC</tspan></text>
		<text
   id="text1129"
   class="st5 st6"
   transform="translate(143.97,37.8628)">ligC</text>
		<text
   id="text1131"
   class="st5 st6"
   transform="translate(95.7258,96.3891)">ligA</text>
		<text
   id="text1133"
   class="st5 st6"
   transform="translate(136.1208,92.5937)">ligC</text>
		<text
   id="text1141"
   transform="translate(127.0593,134.5239)"><tspan
     id="tspan1135"
     class="st5 st6"
     y="0"
     x="0">p</tspan><tspan
     id="tspan1137"
     class="st5 st6"
     y="0"
     x="3.4100001">r</tspan><tspan
     id="tspan1139"
     class="st5 st6"
     y="0"
     x="5.3200002">otE</tspan></text>
		<text
   id="text1143"
   class="st5 st6"
   transform="translate(110.8181,89.1753)">ligB</text>
		<text
   id="text1151"
   transform="translate(101.0261,134.1792)"><tspan
     id="tspan1145"
     class="st5 st6"
     y="0"
     x="0">p</tspan><tspan
     id="tspan1147"
     class="st5 st6"
     y="0"
     x="3.4100001">r</tspan><tspan
     id="tspan1149"
     class="st5 st6"
     y="0"
     x="5.3200002">otF</tspan></text>
		<text
   id="text1153"
   class="st5 st6"
   transform="translate(101.1682,158.6992)">ECM</text>
	</g>
	<path
   inkscape:connector-curvature="0"
   id="path1157"
   d="m 117,131.06 c -3.47,8.01 -10.76,13.11 -12.43,19.59"
   class="st4" />
	<path
   inkscape:connector-curvature="0"
   id="path1159"
   d="m 104.34,152.92 c -0.28,-1.11 -0.81,-2.52 -1.44,-3.42 l 1.72,0.85 1.86,-0.45 c -0.8,0.74 -1.62,2 -2.14,3.02" />
	<path
   inkscape:connector-curvature="0"
   id="path1161"
   d="m 127.06,129.25 c -2.16,2.41 -9.49,19.03 -14.05,24.02"
   class="st4" />
	<path
   inkscape:connector-curvature="0"
   id="path1163"
   d="m 111.4,154.89 c 0.47,-1.05 0.92,-2.48 0.98,-3.58 l 0.83,1.73 1.74,0.8 c -1.09,0.08 -2.51,0.56 -3.55,1.05" />
	<text
   id="text1165"
   class="st7 st8"
   transform="translate(1.4495,6.4038)">cellType1</text>
	<text
   id="text1167"
   class="st7 st8"
   transform="translate(84.2175,6.0493)">cellType2</text>
	<text
   id="text1169"
   class="st7 st8"
   transform="translate(83.9333,87.7007)">cellType3</text>
	<text
   id="text1171"
   class="st7 st8"
   transform="translate(1.4495,87.7002)">cellType4</text>
	<path
   inkscape:connector-curvature="0"
   id="path1173"
   d="m 35.83,131.77 c 1.16,1.86 1.58,2.96 2.3,5.7"
   class="st4" />
	<path
   inkscape:connector-curvature="0"
   id="path1175"
   d="m 38.69,139.68 c -0.65,-0.94 -1.65,-2.07 -2.55,-2.69 l 1.91,0.18 1.58,-1.08 c -0.49,0.99 -0.82,2.45 -0.94,3.59" />
	<g
   id="g1185">
		<g
   id="g1183">
			<path
   inkscape:connector-curvature="0"
   id="path1177"
   d="M 23.15,69.16 C 13.05,69.13 4.55,61.41 3.55,51.52 2.73,43.4 7.14,35.74 14.16,32.1"
   class="st9" />
			<g
   id="g1181">
				<path
   inkscape:connector-curvature="0"
   id="path1179"
   d="m 19.89,30.17 c -2.32,1.94 -5.04,4.82 -6.46,7.34 l 0.03,-5.06 -3.21,-3.9 c 2.69,1.07 6.61,1.58 9.64,1.62 z"
   class="st10" />
			</g>
		</g>
	</g>
	<g
   id="g1195">
		<g
   id="g1193">
			<line
   id="line1187"
   y2="22.870001"
   x2="99.5"
   y1="22.870001"
   x1="66.349998"
   class="st9" />
			<g
   id="g1191">
				<path
   inkscape:connector-curvature="0"
   id="path1189"
   d="m 105.53,22.87 c -2.84,1.05 -6.36,2.85 -8.55,4.76 l 1.72,-4.76 -1.72,-4.75 c 2.19,1.9 5.71,3.69 8.55,4.75 z"
   class="st10" />
			</g>
		</g>
	</g>
	<g
   id="g1205">
		<g
   id="g1203">
			<line
   id="line1197"
   y2="64.739998"
   x2="97.580002"
   y1="90.040001"
   x1="69.849998"
   class="st9" />
			<g
   id="g1201">
				<path
   inkscape:connector-curvature="0"
   id="path1199"
   d="m 102.04,60.68 c -1.39,2.69 -2.78,6.4 -3.11,9.27 L 97,65.28 92.52,62.93 c 2.89,-0.07 6.71,-1.12 9.52,-2.25 z"
   class="st10" />
			</g>
		</g>
	</g>
	<g
   id="g1215">
		<g
   id="g1213">
			<line
   id="line1207"
   y2="19.129999"
   x2="70.379997"
   y1="19.129999"
   x1="103.52"
   class="st9" />
			<g
   id="g1211">
				<path
   inkscape:connector-curvature="0"
   id="path1209"
   d="m 64.34,19.13 c 2.84,-1.05 6.36,-2.85 8.55,-4.76 l -1.72,4.76 1.72,4.75 c -2.18,-1.9 -5.71,-3.7 -8.55,-4.75 z"
   class="st10" />
			</g>
		</g>
	</g>
	<g
   id="g1225">
		<g
   id="g1223">
			<line
   id="line1217"
   y2="83.599998"
   x2="126.2"
   y1="71.660004"
   x1="126.2"
   class="st9" />
			<g
   id="g1221">
				<path
   inkscape:connector-curvature="0"
   id="path1219"
   d="m 126.2,89.63 c -1.05,-2.84 -2.85,-6.36 -4.76,-8.55 l 4.76,1.72 4.75,-1.72 c -1.9,2.19 -3.7,5.71 -4.75,8.55 z"
   class="st10" />
			</g>
		</g>
	</g>
	<g
   id="g1235">
		<g
   id="g1233">
			<line
   id="line1227"
   y2="139.67999"
   x2="91.089996"
   y1="139.67999"
   x1="69.489998"
   class="st9" />
			<g
   id="g1231">
				<path
   inkscape:connector-curvature="0"
   id="path1229"
   d="m 97.13,139.68 c -2.84,1.05 -6.36,2.85 -8.55,4.76 l 1.72,-4.76 -1.72,-4.75 c 2.19,1.89 5.71,3.69 8.55,4.75 z"
   class="st10" />
			</g>
		</g>
	</g>
	<g
   id="g1245">
		<g
   id="g1243">
			<line
   id="line1237"
   y2="77.910004"
   x2="44.75"
   y1="98.510002"
   x1="44.75"
   class="st9" />
			<g
   id="g1241">
				<path
   inkscape:connector-curvature="0"
   id="path1239"
   d="m 44.75,71.88 c 1.05,2.84 2.85,6.36 4.76,8.55 L 44.75,78.71 40,80.43 c 1.9,-2.19 3.7,-5.71 4.75,-8.55 z"
   class="st10" />
			</g>
		</g>
	</g>
	<g
   id="g1255">
		<g
   id="g1253">
			<line
   id="line1247"
   y2="127.65"
   x2="75.889999"
   y1="127.65"
   x1="100.92"
   class="st9" />
			<g
   id="g1251">
				<path
   inkscape:connector-curvature="0"
   id="path1249"
   d="m 69.85,127.65 c 2.84,-1.05 6.36,-2.85 8.55,-4.76 l -1.72,4.76 1.72,4.75 c -2.19,-1.9 -5.71,-3.7 -8.55,-4.75 z"
   class="st10" />
			</g>
		</g>
	</g>
</g>
</svg>
